<svg width="40" height="40" viewBox="0 0 40 40" fill="none" xmlns="http://www.w3.org/2000/svg">
<circle cx="20" cy="20" r="20" fill="url(#paint0_linear)"/>
<circle cx="20" cy="20" r="20" stroke="white"/>
<path d="M14.0551 25C13.3551 23.488 12.6784 21.906 12.0251 20.254C11.3811 18.602 10.7791 16.95 10.2191 15.298H12.1651C12.3891 15.9513 12.6178 16.6187 12.8511 17.3C13.0844 17.9813 13.3178 18.6533 13.5511 19.316C13.7844 19.9693 14.0178 20.604 14.2511 21.22C14.4844 21.836 14.7131 22.4007 14.9371 22.914C15.1518 22.4007 15.3758 21.8407 15.6091 21.234C15.8424 20.618 16.0758 19.9787 16.3091 19.316C16.5518 18.6533 16.7898 17.9813 17.0231 17.3C17.2564 16.6187 17.4804 15.9513 17.6951 15.298H19.5851C19.0158 16.95 18.4091 18.602 17.7651 20.254C17.1211 21.906 16.4491 23.488 15.7491 25H14.0551ZM23.7657 25.112C23.2524 25.112 22.7344 25.0933 22.2117 25.056C21.6891 25.028 21.2317 24.9627 20.8397 24.86V15.438C21.0451 15.4007 21.2644 15.368 21.4977 15.34C21.7311 15.3027 21.9691 15.2747 22.2117 15.256C22.4544 15.2373 22.6924 15.2233 22.9257 15.214C23.1684 15.2047 23.3971 15.2 23.6117 15.2C24.1997 15.2 24.7457 15.2467 25.2497 15.34C25.7537 15.424 26.1877 15.5687 26.5517 15.774C26.9251 15.9793 27.2144 16.25 27.4197 16.586C27.6251 16.922 27.7277 17.3373 27.7277 17.832C27.7277 18.2893 27.6157 18.6813 27.3917 19.008C27.1771 19.3347 26.8737 19.596 26.4817 19.792C27.0697 19.988 27.5037 20.2773 27.7837 20.66C28.0637 21.0427 28.2037 21.528 28.2037 22.116C28.2037 23.1147 27.8397 23.866 27.1117 24.37C26.3837 24.8647 25.2684 25.112 23.7657 25.112ZM22.5757 20.632V23.586C22.7717 23.6047 22.9817 23.6187 23.2057 23.628C23.4297 23.6373 23.6351 23.642 23.8217 23.642C24.1857 23.642 24.5217 23.6187 24.8297 23.572C25.1471 23.5253 25.4177 23.446 25.6417 23.334C25.8751 23.2127 26.0571 23.054 26.1877 22.858C26.3277 22.662 26.3977 22.41 26.3977 22.102C26.3977 21.5513 26.1971 21.1687 25.7957 20.954C25.3944 20.7393 24.8391 20.632 24.1297 20.632H22.5757ZM22.5757 19.246H23.8217C24.4937 19.246 25.0211 19.1527 25.4037 18.966C25.7864 18.77 25.9777 18.4247 25.9777 17.93C25.9777 17.4633 25.7771 17.132 25.3757 16.936C24.9837 16.74 24.4704 16.642 23.8357 16.642C23.5651 16.642 23.3224 16.6467 23.1077 16.656C22.9024 16.6653 22.7251 16.6793 22.5757 16.698V19.246Z" fill="white"/>
<defs>
<linearGradient id="paint0_linear" x1="0" y1="0" x2="40" y2="40" gradientUnits="userSpaceOnUse">
<stop stop-color="#FA709A"/>
<stop offset="1" stop-color="#FEE140"/>
</linearGradient>
</defs>
</svg>
