<svg width="24" height="24" viewBox="0 0 24 24" fill="none" xmlns="http://www.w3.org/2000/svg">
<path d="M4 7C4 5.34314 5.34315 4 7 4H9C9.55228 4 10 4.44772 10 5C10 5.55228 9.55228 6 9 6H7C6.44772 6 6 6.44772 6 7V17C6 17.5523 6.44771 18 7 18H17C17.5523 18 18 17.5523 18 17V15C18 14.4477 18.4477 14 19 14C19.5523 14 20 14.4477 20 15V17C20 18.6569 18.6569 20 17 20H7C5.34315 20 4 18.6569 4 17V7Z" fill="white"/>
<path d="M18 7.41421L10.7071 14.7071C10.3166 15.0976 9.68342 15.0976 9.29289 14.7071C8.90237 14.3166 8.90237 13.6834 9.29289 13.2929L16.5858 6H14C13.4477 6 13 5.55228 13 5C13 4.44772 13.4477 4 14 4H19C19.5523 4 20 4.44772 20 5V10C20 10.5523 19.5523 11 19 11C18.4477 11 18 10.5523 18 10V7.41421Z" fill="white"/>
</svg>
