<svg width="144" height="144" viewBox="0 0 144 144" fill="none" xmlns="http://www.w3.org/2000/svg">
<path fill-rule="evenodd" clip-rule="evenodd" d="M111.415 32.002L94.5355 15.1227C92.5829 13.17 89.4171 13.17 87.4645 15.1227L78 24.5871L63.5355 10.1227C61.5829 8.17005 58.4171 8.17005 56.4645 10.1227L34.5852 32.002H21C19.3431 32.002 18 33.3451 18 35.002V40.002C18 41.6588 19.3431 43.002 21 43.002H22.1574L37.443 131.85C37.8557 134.249 39.9363 136.002 42.3706 136.002H46.998C46.9993 136.002 47.0007 136.002 47.002 136.002H66.998C66.9993 136.002 67.0007 136.002 67.002 136.002H100.665C103.08 136.002 105.149 134.276 105.583 131.901L108.73 114.685C109.005 114.392 109.07 113.973 108.925 113.621L117.678 65.7385L117.707 65.7091C118.02 65.3965 118.082 64.9284 117.894 64.5537L121.834 43.002H123C124.657 43.002 126 41.6588 126 40.002V35.002C126 33.3451 124.657 32.002 123 32.002H111.415ZM62.1213 11.5369C60.9497 10.3653 59.0503 10.3653 57.8787 11.5369L37.4136 32.002H82.5864L62.1213 11.5369ZM85.4148 32.002H108.586L93.1213 16.5369C91.9497 15.3653 90.0503 15.3653 88.8787 16.5369L79.4142 26.0013L85.4148 32.002ZM115.822 64.7654L117.295 56.7109L117.293 56.7091L112 51.4162L103.414 60.002L112 68.5877L115.822 64.7654ZM110.586 70.002L102 61.4162L93.4142 70.002L102 78.5877L110.586 70.002ZM103.414 80.002L112 71.4162L114.204 73.62L111.55 88.1377L103.414 80.002ZM100.586 80.002L92 71.4162L83.4142 80.002L92 88.5877L100.586 80.002ZM93.4142 90.002L102 81.4162L110.586 90.002L102 98.5877L93.4142 90.002ZM90.5858 90.002L82 81.4162L73.4142 90.002L82 98.5877L90.5858 90.002ZM83.4142 100.002L92 91.4162L100.586 100.002L92 108.588L83.4142 100.002ZM80.5858 100.002L72 91.4162L63.4142 100.002L72 108.588L80.5858 100.002ZM73.4142 110.002L82 101.416L90.5858 110.002L82 118.588L73.4142 110.002ZM70.5858 110.002L62 101.416L53.4142 110.002L62 118.588L70.5858 110.002ZM63.4142 120.002L72 111.416L80.5858 120.002L72 128.588L63.4142 120.002ZM60.5858 120.002L52 111.416L43.4142 120.002L52 128.588L60.5858 120.002ZM53.4142 130.002L62 121.416L70.5858 130.002L66.5858 134.002H57C57 133.746 56.9024 133.49 56.7071 133.295L53.4142 130.002ZM50.5858 130.002L42 121.416L38.7071 124.709C38.5857 124.83 38.4408 124.914 38.2871 124.96L39.414 131.511C39.6617 132.95 40.91 134.002 42.3706 134.002H46.5858L50.5858 130.002ZM49.4142 134.002L52 131.416L54.5858 134.002H49.4142ZM37.8967 122.691L40.5858 120.002L36.7792 116.195L37.8967 122.691ZM42 118.588L50.5858 110.002L42 101.416L35.7071 107.709C35.6046 107.812 35.4853 107.887 35.3582 107.936L36.2345 113.03C36.4077 113.071 36.5719 113.16 36.7071 113.295L42 118.588ZM34.9609 105.627L40.5858 100.002L32.6233 92.0395L34.9609 105.627ZM43.4142 100.002L52 108.588L60.5858 100.002L52 91.4162L43.4142 100.002ZM50.5858 90.002L42 98.5877L33.4142 90.002L42 81.4162L50.5858 90.002ZM53.4142 90.002L62 98.5877L70.5858 90.002L62 81.4162L53.4142 90.002ZM60.5858 80.002L52 88.5877L43.4142 80.002L52 71.4162L60.5858 80.002ZM63.4142 80.002L72 88.5877L80.5858 80.002L72 71.4162L63.4142 80.002ZM70.5858 70.002L62 78.5877L53.4142 70.002L62 61.4162L70.5858 70.002ZM73.4142 70.002L82 78.5877L90.5858 70.002L82 61.4162L73.4142 70.002ZM80.5858 60.002L72 68.5877L63.4142 60.002L72 51.4162L80.5858 60.002ZM83.4142 60.002L92 68.5877L100.586 60.002L92 51.4162L83.4142 60.002ZM90.5858 50.002L82 58.5877L73.4142 50.002L80.4142 43.002H83.5858L90.5858 50.002ZM93.4142 50.002L102 58.5877L110.586 50.002L103.586 43.002H100.414L93.4142 50.002ZM97.5858 43.002L92 48.5877L86.4142 43.002H97.5858ZM113.414 50.002L117.732 54.3196L119.663 43.7528L113.414 50.002ZM117.586 43.002L112 48.5877L106.414 43.002H117.586ZM77.5858 43.002H66.4142L72 48.5877L77.5858 43.002ZM70.5858 50.002L63.5858 43.002H60.4142L53.4142 50.002L62 58.5877L70.5858 50.002ZM60.5858 60.002L52 51.4162L43.4142 60.002L52 68.5877L60.5858 60.002ZM50.5858 70.002L42 61.4162L33.4142 70.002L42 78.5877L50.5858 70.002ZM40.5858 80.002L32 71.4162L29.7071 73.7091C29.643 73.7732 29.5724 73.8267 29.4973 73.8698L32.0251 88.5626L40.5858 80.002ZM29.0894 71.4984L30.5858 70.002L28.4675 67.8836L29.0894 71.4984ZM32 68.5877L40.5858 60.002L32 51.4162L26.7071 56.7091C26.6627 56.7534 26.6152 56.7928 26.5653 56.8271L27.8797 64.4675L32 68.5877ZM26.1536 54.4342L30.5858 50.002L24.3116 43.7278L26.1536 54.4342ZM33.4142 50.002L42 58.5877L50.5858 50.002L43.5858 43.002H40.4142L33.4142 50.002ZM37.5858 43.002L32 48.5877L26.4142 43.002H37.5858ZM52 48.5877L57.5858 43.002H46.4142L52 48.5877ZM69.4142 134.002H74.5858L72 131.416L69.4142 134.002ZM73.4142 130.002L77.4142 134.002H87C87 133.746 87.0976 133.49 87.2929 133.295L90.5858 130.002L82 121.416L73.4142 130.002ZM83.4142 120.002L92 128.588L100.586 120.002L92 111.416L83.4142 120.002ZM93.4142 110.002L102 118.588L106.875 113.713L108.022 107.438L102 101.416L93.4142 110.002ZM103.414 100.002L108.459 105.047L110.716 92.7001L103.414 100.002ZM106.242 117.174L103.414 120.002L105.368 121.956L106.242 117.174ZM102 121.416L93.4142 130.002L97.4142 134.002H100.665C102.114 134.002 103.355 132.967 103.616 131.541L104.931 124.347L102 121.416ZM92 131.416L89.4142 134.002H94.5858L92 131.416ZM113.414 70.002L115.19 68.2265L114.641 71.2287L113.414 70.002ZM123 41.002H21C20.4477 41.002 20 40.5542 20 40.002V35.002C20 34.4497 20.4477 34.002 21 34.002H123C123.552 34.002 124 34.4497 124 35.002V40.002C124 40.5542 123.552 41.002 123 41.002Z" fill="#F54747"/>
</svg>
